<svg width="135" height="58" viewBox="0 0 135 58" fill="none" xmlns="http://www.w3.org/2000/svg">
<path d="M29 58C45.0162 58 58 45.0162 58 29C58 12.9837 45.0162 0 29 0C12.9837 0 0 12.9837 0 29C0 45.0162 12.9837 58 29 58Z" fill="white"/>
<path d="M22.1105 43.6352L12.387 34.1543C11.3948 33.1841 11.3728 31.6187 12.3429 30.6265C13.3131 29.6343 14.8785 29.6123 15.8707 30.5824L22.0665 36.6017L42.0425 16.6256C43.0127 15.6554 44.6002 15.6554 45.5703 16.6256C46.5405 17.5957 46.5405 19.1832 45.5703 20.1534L22.1105 43.6352Z" fill="#28C079"/>
<path d="M135 17.9701C134.928 9.6741 127.888 2.95389 119.291 3.00024C113.663 3.02341 108.73 5.94322 106 10.2998C103.27 5.94322 98.3609 3.02341 92.7095 3.00024C84.1365 2.95389 77.0721 9.6741 77.0003 17.9701C76.9763 22.0949 78.6287 25.8257 81.3586 28.5833C81.6699 28.8845 81.9573 29.1858 82.2446 29.5102L103.581 52.8918C104.851 54.2822 107.078 54.2822 108.323 52.8918L129.66 29.5102C129.947 29.1858 130.258 28.8845 130.546 28.5833C133.347 25.8489 135.024 22.0949 135 17.9701Z" fill="#E51715"/>
</svg>
