<svg width="44" height="55" viewBox="0 0 44 55" fill="none" xmlns="http://www.w3.org/2000/svg">
<path d="M38.6278 10.2085L38.5819 27.9203L32.7391 27.9031L25.1172 27.8859L25.1516 14.823L25.1631 10.1741L33.7493 10.1396L38.6278 10.2085Z" fill="url(#paint0_linear_20_203)"/>
<path d="M25.1621 10.1686L27.6186 6.50684L35.9407 6.52979L33.7311 10.1915L25.1621 10.1686Z" fill="url(#paint1_linear_20_203)"/>
<path d="M35.9421 6.5293L38.6281 10.2083L33.7324 10.191L35.9421 6.5293Z" fill="#B1BEE3"/>
<path d="M38.6272 10.2086L38.5813 27.9204L33.6855 27.909L33.7315 10.1914L38.6272 10.2086Z" fill="url(#paint2_linear_20_203)"/>
<path d="M27.6211 6.50649L35.9432 6.52945V6.35727C35.9432 5.68002 35.398 5.12903 34.7207 5.12903L28.8493 5.11182C28.1721 5.11182 27.6211 5.65706 27.6211 6.33431V6.50649Z" fill="url(#paint3_linear_20_203)"/>
<path d="M25.1502 15.5234L33.7134 15.5464L33.7076 18.7203L25.1387 18.6973L25.1502 15.5234Z" fill="url(#paint4_linear_20_203)"/>
<path d="M38.6104 15.5574L38.6047 18.7313L33.709 18.7198L33.7147 15.5459L38.6104 15.5574Z" fill="url(#paint5_linear_20_203)"/>
<path d="M22.7933 7.86084H17.8574V19.6266H22.7933V7.86084Z" fill="url(#paint6_linear_20_203)"/>
<path d="M21.8507 2.95361H20.3527C18.4185 2.95361 16.8574 4.52047 16.8574 6.44891V8.9513H19.8419C20.5249 8.9513 21.0759 9.50228 21.0759 10.1853C21.0759 10.8683 20.5249 11.4192 19.8419 11.4192H16.8574V14.9777H19.8419C20.5249 14.9777 21.0759 15.5287 21.0759 16.2117C21.0759 16.8946 20.5249 17.4456 19.8419 17.4456H16.8574V24.3042H25.3517V6.44891C25.346 4.52047 23.7792 2.95361 21.8507 2.95361Z" fill="url(#paint7_linear_20_203)"/>
<path d="M7.87436 10.5293C7.87436 10.5293 -0.906948 7.10856 1.01002 4.53157C2.93272 1.94883 8.2302 9.74869 8.2302 9.74869L7.87436 10.5293Z" fill="#2AD585"/>
<path d="M8.66088 9.94358C8.66088 9.94358 9.1143 0.525203 5.98058 1.23115C2.83538 1.9371 7.8057 9.94932 7.8057 9.94932L8.66088 9.94358Z" fill="#2AD585"/>
<path d="M8.4716 10.6096C8.4716 10.6096 4.56306 -2.05726 0.930016 0.290158C-2.36441 2.42522 7.62791 10.8622 7.62791 10.8622L8.4716 10.6096Z" fill="#34E894"/>
<path d="M20.3859 27.6153C20.1735 27.5924 19.9554 27.5005 19.7545 27.3283L18.4 26.1747L18.3943 26.169L15.5246 23.7182L14.9965 23.2648L11.1741 20.0049L10.4337 19.3735L7.95429 17.2614C7.7075 17.0491 7.47793 16.8137 7.27131 16.5669C7.09913 16.3603 6.93841 16.1422 6.80067 15.9127C6.08898 14.7705 5.80776 13.4045 6.10621 12.073C6.35874 10.9538 6.94415 10.0642 7.71897 9.45581C7.79932 9.39268 7.88542 9.32955 7.97152 9.27215C9.1194 8.49733 10.6174 8.28497 12.0637 8.76708C12.4253 8.88761 12.7639 9.05405 13.0796 9.25493C13.9635 9.81166 14.6579 10.6496 15.0826 11.6196L15.4385 12.4059L15.8115 13.2323L17.6769 17.3418L18.0155 18.0879L20.2137 22.9262L20.4146 23.3739L21.5911 25.9681C22.0159 26.8807 21.2123 27.7186 20.3859 27.6153Z" fill="url(#paint8_linear_20_203)"/>
<path opacity="0.1" d="M18.4016 26.1693L7.95586 17.2617C6.45213 15.9761 5.67157 13.9845 6.10203 12.0733C6.35456 10.9541 6.93999 10.0645 7.71481 9.45612C7.79516 9.39299 7.88124 9.32986 7.96733 9.27246C8.11082 14.5011 14.8891 22.4157 18.4016 26.1693Z" fill="black"/>
<path opacity="0.1" d="M13.0788 9.25506L9.93359 11.2696L12.0629 8.77295C12.4245 8.89348 12.7631 9.05418 13.0788 9.25506Z" fill="black"/>
<path opacity="0.1" d="M10.2292 13.749L7.27338 16.5728C7.10119 16.3662 6.94048 16.1481 6.80273 15.9185L10.2292 13.749Z" fill="black"/>
<path opacity="0.1" d="M15.8175 13.238L12.9707 14.9942L15.4386 12.4058L15.8175 13.238Z" fill="black"/>
<path opacity="0.1" d="M13.4774 17.6631L11.1759 20.0048L10.4355 19.3792L13.4774 17.6631Z" fill="black"/>
<path opacity="0.1" d="M18.0216 18.0995L16.0645 19.0063L17.683 17.3477L18.0216 18.0995Z" fill="black"/>
<path opacity="0.1" d="M17.355 21.7441L15.5241 23.7185L14.9961 23.2708L17.355 21.7441Z" fill="black"/>
<path opacity="0.1" d="M20.4265 23.3794L19.1523 24.0796L20.2256 22.9375L20.4265 23.3794Z" fill="black"/>
<path d="M5.46645 16.2402C5.46645 16.2402 -0.846906 13.7779 0.530553 11.9299C1.91375 10.0703 5.71897 15.6834 5.71897 15.6834L5.46645 16.2402Z" fill="#2AD485"/>
<path d="M6.03368 15.8155C6.03368 15.8155 6.36083 9.04872 4.11098 9.55378C1.84965 10.0589 5.4253 15.8212 5.4253 15.8212L6.03368 15.8155Z" fill="#2AD485"/>
<path d="M5.89766 16.2975C5.89766 16.2975 3.08534 7.18909 0.479652 8.88221C-1.89072 10.4146 5.29503 16.4812 5.29503 16.4812L5.89766 16.2975Z" fill="#34E894"/>
<path d="M14.4614 28.5171C14.3064 28.4999 14.1515 28.431 14.008 28.3105L13.0323 27.4783C13.0323 27.4783 13.0323 27.4783 13.0265 27.4783L10.9604 25.7163L10.5815 25.3891L7.83237 23.0474L7.30435 22.594L5.52513 21.0731C5.34721 20.9181 5.18076 20.7517 5.03154 20.5738C4.90527 20.4245 4.79049 20.2696 4.69292 20.1031C4.18211 19.2824 3.97548 18.3009 4.19358 17.3425C4.3715 16.5389 4.79623 15.9019 5.35295 15.4599C5.41034 15.414 5.47347 15.3681 5.53661 15.3279C6.36308 14.7712 7.44209 14.6162 8.47518 14.9663C8.73346 15.0524 8.98025 15.173 9.20409 15.3165C9.84116 15.7182 10.3348 16.3208 10.6447 17.0153L10.903 17.5835L11.1727 18.1804L12.5157 21.1362L12.7625 21.6757L14.3409 25.1538L14.4843 25.4752L15.328 27.3405C15.6322 27.9891 15.0583 28.5917 14.4614 28.5171Z" fill="url(#paint9_linear_20_203)"/>
<path opacity="0.1" d="M13.0332 27.478L5.5261 21.0728C4.44135 20.1487 3.88462 18.7139 4.19455 17.3422C4.37247 16.5387 4.79719 15.9016 5.35392 15.4596C5.41131 15.4137 5.47444 15.3678 5.53758 15.3276C5.64089 19.0927 10.5136 24.7804 13.0332 27.478Z" fill="black"/>
<path opacity="0.1" d="M9.2086 15.3218L6.94727 16.7681L8.47395 14.9717C8.73797 15.0578 8.97903 15.1783 9.2086 15.3218Z" fill="black"/>
<path opacity="0.1" d="M7.15556 18.5527L5.03198 20.5787C4.90571 20.4295 4.79093 20.2746 4.69336 20.1081L7.15556 18.5527Z" fill="black"/>
<path opacity="0.1" d="M11.1721 18.18L9.12891 19.4484L10.9024 17.5889L11.1721 18.18Z" fill="black"/>
<path opacity="0.1" d="M9.49531 21.3652L7.83662 23.0469L7.30859 22.5992L9.49531 21.3652Z" fill="black"/>
<path opacity="0.1" d="M12.7616 21.6754L11.3555 22.3297L12.5148 21.1416L12.7616 21.6754Z" fill="black"/>
<path opacity="0.1" d="M12.2791 24.2988L10.9647 25.7165L10.5859 25.3951L12.2791 24.2988Z" fill="black"/>
<path opacity="0.1" d="M14.4886 25.4747L13.5703 25.9741L14.3394 25.1533L14.4886 25.4747Z" fill="black"/>
<path d="M39.3523 18.6795V54.4934H2.84961V18.6508L3.39485 20.0856L4.8871 18.249L6.32195 20.143L7.87159 18.249L8.10117 18.5417L8.58902 19.1673L9.30645 20.0856L10.7987 18.249L12.2909 20.0282L13.7258 18.249L15.2754 20.143L16.7103 18.249L18.1451 20.0856L19.6374 18.249L21.0722 20.0282L22.5071 18.249L23.9993 20.0282L25.4916 18.249L26.9838 20.0282L28.4187 18.249L29.8535 20.0282L31.4032 18.249L32.8954 20.0282L34.3877 18.249L35.8225 20.0856L37.3148 18.249L38.7496 19.9135L39.3523 18.6795Z" fill="url(#paint10_linear_20_203)"/>
<path d="M8.58902 19.1673V54.4934H2.84961V18.6508L3.39485 20.0856L4.8871 18.249L6.32195 20.143L7.87159 18.249L8.10117 18.5417L8.58902 19.1673Z" fill="#FED81D"/>
<path d="M13.7223 18.249V54.4934H8.09766V18.5417L9.30293 20.0856L10.7952 18.249L12.2874 20.0282L13.7223 18.249Z" fill="url(#paint11_linear_20_203)"/>
<path d="M13.7258 54.4938H2.84961V54.4709L8.12987 47.377L13.7258 54.4938Z" fill="#ECB400"/>
<path d="M32.2937 51.9968C33.9261 51.9968 35.2495 50.2109 35.2495 48.0079C35.2495 45.8049 33.9261 44.019 32.2937 44.019C30.6612 44.019 29.3379 45.8049 29.3379 48.0079C29.3379 50.2109 30.6612 51.9968 32.2937 51.9968Z" fill="url(#paint12_linear_20_203)"/>
<path d="M38.2312 52.0256C39.8636 52.0256 41.187 50.2397 41.187 48.0367C41.187 45.8337 39.8636 44.0479 38.2312 44.0479C36.5987 44.0479 35.2754 45.8337 35.2754 48.0367C35.2754 50.2397 36.5987 52.0256 38.2312 52.0256Z" fill="url(#paint13_linear_20_203)"/>
<path d="M26.0359 51.9968C27.6683 51.9968 28.9917 50.2109 28.9917 48.0079C28.9917 45.8049 27.6683 44.019 26.0359 44.019C24.4034 44.019 23.0801 45.8049 23.0801 48.0079C23.0801 50.2109 24.4034 51.9968 26.0359 51.9968Z" fill="url(#paint14_linear_20_203)"/>
<path d="M21.7312 51.9968C23.3636 51.9968 24.687 50.2109 24.687 48.0079C24.687 45.8049 23.3636 44.019 21.7312 44.019C20.0987 44.019 18.7754 45.8049 18.7754 48.0079C18.7754 50.2109 20.0987 51.9968 21.7312 51.9968Z" fill="url(#paint15_linear_20_203)"/>
<path d="M34.3601 51.9968C35.9925 51.9968 37.3159 50.2109 37.3159 48.0079C37.3159 45.8049 35.9925 44.019 34.3601 44.019C32.7277 44.019 31.4043 45.8049 31.4043 48.0079C31.4043 50.2109 32.7277 51.9968 34.3601 51.9968Z" fill="url(#paint16_linear_20_203)"/>
<path d="M28.0437 51.9968C29.6761 51.9968 30.9995 50.2109 30.9995 48.0079C30.9995 45.8049 29.6761 44.019 28.0437 44.019C26.4112 44.019 25.0879 45.8049 25.0879 48.0079C25.0879 50.2109 26.4112 51.9968 28.0437 51.9968Z" fill="url(#paint17_linear_20_203)"/>
<path d="M42.6809 49.9019V50.7054L39.8112 54.4934H37.5155L37.2859 53.8047H36.3676L35.851 54.4934H31.7761L31.2021 53.7473H29.4803L28.9638 54.4934H25.9219L25.3479 53.7473H23.5687L22.9948 54.4934H21.2155L18.6328 51.3941V49.9019H42.6809Z" fill="#B68649"/>
<path d="M42.68 49.9019V50.7054L39.8103 54.4934H37.5145L37.2849 53.8047H36.3666L35.8501 54.4934H34.2832L36.4986 49.9019H42.68Z" fill="url(#paint18_linear_20_203)"/>
<path d="M43.3974 48.8975H17.7422V50.2749H43.3974V48.8975Z" fill="url(#paint19_linear_20_203)"/>
<path d="M43.3978 48.8975H35.707V50.2749H43.3978V48.8975Z" fill="#B68649"/>
<defs>
<linearGradient id="paint0_linear_20_203" x1="25.4258" y1="18.8308" x2="35.2874" y2="19.1595" gradientUnits="userSpaceOnUse">
<stop stop-color="#F3F7FF"/>
<stop offset="1" stop-color="#BCCBF9"/>
</linearGradient>
<linearGradient id="paint1_linear_20_203" x1="26.9749" y1="8.35026" x2="37.7556" y2="8.34921" gradientUnits="userSpaceOnUse">
<stop stop-color="#91A1D2"/>
<stop offset="0.666667" stop-color="#DEE6FF"/>
</linearGradient>
<linearGradient id="paint2_linear_20_203" x1="33.6842" y1="19.0564" x2="38.6259" y2="19.0564" gradientUnits="userSpaceOnUse">
<stop stop-color="#B0BFE9"/>
<stop offset="1" stop-color="#EEF2FF"/>
</linearGradient>
<linearGradient id="paint3_linear_20_203" x1="27.6244" y1="5.80645" x2="35.9471" y2="5.82838" gradientUnits="userSpaceOnUse">
<stop stop-color="#B8CAFF"/>
<stop offset="1" stop-color="#9BB1F4"/>
</linearGradient>
<linearGradient id="paint4_linear_20_203" x1="25.1393" y1="17.1228" x2="33.7156" y2="17.122" gradientUnits="userSpaceOnUse">
<stop stop-color="#90A5E2"/>
<stop offset="1" stop-color="#C2CBE4"/>
<stop offset="1" stop-color="#C6D1F2"/>
<stop offset="1" stop-color="#F5F8FF"/>
</linearGradient>
<linearGradient id="paint5_linear_20_203" x1="33.7087" y1="17.1401" x2="38.6124" y2="17.1396" gradientUnits="userSpaceOnUse">
<stop stop-color="#8AA5F6"/>
<stop offset="1" stop-color="#DADBDE"/>
</linearGradient>
<linearGradient id="paint6_linear_20_203" x1="21.4482" y1="13.7437" x2="16.9717" y2="13.7437" gradientUnits="userSpaceOnUse">
<stop stop-color="#C48F40"/>
<stop offset="1" stop-color="#DADBDE"/>
</linearGradient>
<linearGradient id="paint7_linear_20_203" x1="26.8133" y1="26.7267" x2="17.6868" y2="7.95698" gradientUnits="userSpaceOnUse">
<stop stop-color="#F7CF95"/>
<stop offset="1" stop-color="#D3A35B"/>
</linearGradient>
<linearGradient id="paint8_linear_20_203" x1="4.47292" y1="12.9084" x2="20.5625" y2="20.1541" gradientUnits="userSpaceOnUse">
<stop stop-color="#FF7A00"/>
<stop offset="1" stop-color="#FFC28A"/>
</linearGradient>
<linearGradient id="paint9_linear_20_203" x1="3.02469" y1="17.9461" x2="14.5896" y2="23.1542" gradientUnits="userSpaceOnUse">
<stop stop-color="#FF6B00"/>
<stop offset="1" stop-color="#FF9F47"/>
</linearGradient>
<linearGradient id="paint10_linear_20_203" x1="2.84961" y1="36.3712" x2="39.3523" y2="36.3712" gradientUnits="userSpaceOnUse">
<stop stop-color="#F6BE04"/>
<stop offset="1" stop-color="#FFD91D"/>
</linearGradient>
<linearGradient id="paint11_linear_20_203" x1="11.0258" y1="49.6389" x2="10.7106" y2="13.541" gradientUnits="userSpaceOnUse">
<stop stop-color="#ECB400"/>
</linearGradient>
<linearGradient id="paint12_linear_20_203" x1="29.3379" y1="48.0079" x2="35.2495" y2="48.0079" gradientUnits="userSpaceOnUse">
<stop stop-color="#EEC38B"/>
<stop offset="1" stop-color="#FFE9CE"/>
</linearGradient>
<linearGradient id="paint13_linear_20_203" x1="35.2754" y1="48.0367" x2="41.187" y2="48.0367" gradientUnits="userSpaceOnUse">
<stop stop-color="#E7B473"/>
<stop offset="1" stop-color="#FFE5C2"/>
</linearGradient>
<linearGradient id="paint14_linear_20_203" x1="23.0801" y1="48.0079" x2="28.9917" y2="48.0079" gradientUnits="userSpaceOnUse">
<stop stop-color="#EEC38B"/>
<stop offset="1" stop-color="#FFE9CE"/>
</linearGradient>
<linearGradient id="paint15_linear_20_203" x1="18.7754" y1="48.0079" x2="24.687" y2="48.0079" gradientUnits="userSpaceOnUse">
<stop stop-color="#F2F2F2"/>
<stop offset="1" stop-color="#DADBDE"/>
</linearGradient>
<linearGradient id="paint16_linear_20_203" x1="31.4043" y1="48.0079" x2="37.3159" y2="48.0079" gradientUnits="userSpaceOnUse">
<stop stop-color="#F2F2F2"/>
<stop offset="1" stop-color="#DADBDE"/>
</linearGradient>
<linearGradient id="paint17_linear_20_203" x1="25.0879" y1="48.0079" x2="30.9995" y2="48.0079" gradientUnits="userSpaceOnUse">
<stop stop-color="#F2F2F2"/>
<stop offset="1" stop-color="#DADBDE"/>
</linearGradient>
<linearGradient id="paint18_linear_20_203" x1="34.2821" y1="52.1976" x2="42.68" y2="52.1976" gradientUnits="userSpaceOnUse">
<stop stop-color="#B68649"/>
<stop offset="1" stop-color="#E9B879"/>
</linearGradient>
<linearGradient id="paint19_linear_20_203" x1="17.3096" y1="49.6275" x2="35.7331" y2="49.5701" gradientUnits="userSpaceOnUse">
<stop stop-color="#B68649"/>
<stop offset="1" stop-color="#E9B777"/>
</linearGradient>
</defs>
</svg>
