<svg width="118" height="60" viewBox="0 0 118 60" fill="none" xmlns="http://www.w3.org/2000/svg">
<path d="M117.999 28.1504C117.936 20.8991 111.782 15.0251 104.268 15.0656C99.3489 15.0859 95.0371 17.638 92.6509 21.446C90.2647 17.638 85.9738 15.0859 81.034 15.0656C73.5405 15.0251 67.3658 20.8991 67.303 28.1504C67.282 31.7558 68.7263 35.0168 71.1125 37.4271C71.3846 37.6904 71.6358 37.9537 71.8869 38.2373L90.5368 58.6746C91.6462 59.8899 93.5928 59.8899 94.6812 58.6746L113.331 38.2373C113.582 37.9537 113.854 37.6904 114.106 37.4271C116.555 35.037 118.02 31.7558 117.999 28.1504Z" fill="#E51715"/>
<path d="M26.611 20.7009H24.3641C24.3641 20.7009 24.3455 19.9006 24.197 18.6455C23.8999 15.9535 23.1014 11.1515 20.9658 7.55C20.5944 6.93157 20.9287 6.13123 21.6344 5.91296L23.2871 5.44004C23.8813 5.27634 24.5127 5.60375 24.6984 6.18581C25.3112 8.13206 26.481 12.643 26.5925 18.6637C26.6296 19.3185 26.6296 20.0097 26.611 20.7009Z" fill="#502522"/>
<path opacity="0.08" d="M26.6094 20.7009H24.3624C24.3624 20.7009 24.3439 19.9006 24.1953 18.6455C24.8638 18.6819 25.6809 18.7183 26.6094 18.6637C26.628 19.3185 26.628 20.0097 26.6094 20.7009Z" fill="black"/>
<path d="M37.2893 58.316C35.8037 59.1527 32.8883 60.1713 28.5986 59.1709C28.3015 59.0981 27.9673 59.0253 27.5959 58.9526C26.7788 58.8071 25.8131 58.6797 24.7547 58.6616C23.1948 58.6616 21.8392 58.9344 20.8922 59.1527C16.6026 60.1531 13.687 59.1345 12.2015 58.2978C0.242516 51.5859 -1.96725 33.3784 1.46816 25.4297C5.81349 15.4255 14.6156 16.5169 18.8123 18.5541C20.985 19.6091 24.1418 19.7364 24.7361 19.7546C25.3303 19.7364 28.4872 19.6091 30.6599 18.5541C31.7741 18.0084 33.2225 17.5355 34.8195 17.3172C39.2206 16.717 44.8101 18.0812 48.0041 25.4297C51.4581 33.3966 49.2482 51.6223 37.2893 58.316Z" fill="url(#paint0_linear_20_261)"/>
<path d="M42.8444 0.510742C42.8444 0.510742 42.8445 20.1006 26.1131 17.1722H26.0945C26.0945 17.1722 20.8578 3.27552 42.7144 0.528933C42.7516 0.528933 42.7887 0.510742 42.8444 0.510742Z" fill="#28C079"/>
<path opacity="0.08" d="M42.8387 0.510742C42.8387 0.510742 42.8388 20.1006 26.1074 17.1722C30.8799 12.9341 39.6819 3.71206 42.7088 0.528933C42.7459 0.528933 42.783 0.510742 42.8387 0.510742Z" fill="black"/>
<path opacity="0.08" d="M37.2891 58.3163C35.8035 59.153 32.8881 60.1716 28.5985 59.1712C28.3013 59.0985 27.9671 59.0257 27.5957 58.9529C46.4998 55.8426 42.8229 24.9753 34.8379 17.3358C39.239 16.7355 44.8285 18.0997 48.0225 25.4482C51.4579 33.3969 49.248 51.6226 37.2891 58.3163Z" fill="black"/>
<g opacity="0.8">
<path d="M4.72216 30.6319C4.12792 30.5591 3.71942 30.0134 3.83084 29.4496C4.48078 25.9936 6.24488 23.8291 7.32193 22.7741C7.7676 22.3375 8.51038 22.3921 8.88177 22.9196L9.40178 23.6472L8.8261 22.8287L8.88177 22.9196C9.16032 23.3198 9.12316 23.8654 8.77033 24.211C8.47322 24.4839 8.12039 24.8841 7.749 25.3752C6.78337 26.6848 6.15203 28.1763 5.83634 29.8316C5.74349 30.3409 5.26068 30.6864 4.72216 30.6319Z" fill="#FFA7A7"/>
</g>
<defs>
<linearGradient id="paint0_linear_20_261" x1="6.75709" y1="52.5851" x2="42.0279" y2="19.4408" gradientUnits="userSpaceOnUse">
<stop stop-color="#DC0000"/>
<stop offset="1" stop-color="#FF574D"/>
<stop offset="1" stop-color="#FF574D"/>
</linearGradient>
</defs>
</svg>
