<svg width="26" height="25" viewBox="0 0 26 25" fill="none" xmlns="http://www.w3.org/2000/svg">
<path fill-rule="evenodd" clip-rule="evenodd" d="M12.5 0C13.3284 0 14 0.671573 14 1.5V23.5C14 24.3284 13.3284 25 12.5 25C11.6716 25 11 24.3284 11 23.5V1.5C11 0.671573 11.6716 0 12.5 0Z" fill="#595959"/>
<path fill-rule="evenodd" clip-rule="evenodd" d="M0.25 11.75C0.25 10.9216 0.921573 10.25 1.75 10.25L23.75 10.25C24.5784 10.25 25.25 10.9216 25.25 11.75C25.25 12.5784 24.5784 13.25 23.75 13.25L1.75 13.25C0.921573 13.25 0.25 12.5784 0.25 11.75Z" fill="#595959"/>
</svg>
