<svg width="15" height="16" viewBox="0 0 15 16" fill="none" xmlns="http://www.w3.org/2000/svg">
<path fill-rule="evenodd" clip-rule="evenodd" d="M3.90945 4.05442C4.15284 3.81102 4.54746 3.81102 4.79085 4.05442L11.2545 10.518C11.4979 10.7614 11.4979 11.156 11.2545 11.3994C11.0111 11.6428 10.6165 11.6428 10.3731 11.3994L3.90945 4.93582C3.66606 4.69243 3.66606 4.29781 3.90945 4.05442Z" fill="#595959"/>
<path fill-rule="evenodd" clip-rule="evenodd" d="M3.48703 11.383C3.24364 11.1396 3.24503 10.7436 3.49014 10.4985L9.99925 3.98941C10.2444 3.7443 10.6404 3.74291 10.8838 3.9863C11.1271 4.2297 11.1258 4.6257 10.8807 4.87081L4.37154 11.3799C4.12643 11.625 3.73043 11.6264 3.48703 11.383Z" fill="#595959"/>
</svg>
