<svg width="59" height="55" viewBox="0 0 59 55" fill="none" xmlns="http://www.w3.org/2000/svg">
<path d="M29.8278 12.437H28.8084V8.49956C26.7377 8.23834 25.1449 6.41617 25.2533 4.24995C25.3616 2.17294 27.0436 0.497304 29.1206 0.395365C31.255 0.293425 33.058 1.84801 33.3511 3.88043C33.3957 4.18625 33.1599 4.46021 32.8541 4.46021H32.8414C32.5865 4.46021 32.3763 4.26907 32.3381 4.02059C32.1151 2.47238 30.7198 1.30008 29.0824 1.42113C27.5915 1.53581 26.3873 2.73998 26.2727 4.23084C26.1389 6.02116 27.5533 7.51839 29.3117 7.51839H29.8214V12.437H29.8278Z" fill="#12452D"/>
<path d="M57.6583 47.8861L47.0566 18.3683C46.6425 17.2087 45.7378 16.2849 44.5846 15.8453L33.8491 11.7422L25.1523 34.8251V54.595H44.5909L43.4059 34.0223L49.4394 50.8806L57.6583 47.8861Z" fill="url(#paint0_linear_20_185)"/>
<path d="M1.3418 47.8607L11.9435 18.3429C12.3576 17.1833 13.2623 16.2595 14.4155 15.8199L25.151 11.7168L33.8478 34.7997V54.5696H14.4028L15.5878 33.997L9.55431 50.8552L1.3418 47.8607Z" fill="url(#paint1_linear_20_185)"/>
<path d="M24.4512 12.0994C24.4512 12.0994 28.9238 9.35337 34.4158 11.9911L29.8922 27.0208L24.4512 12.0994Z" fill="#177247"/>
<path d="M2.8081 42.923L11.5685 46.0704C11.8425 46.1659 11.989 46.4718 11.8998 46.7457L10.0331 52.3906C9.9375 52.6837 9.61894 52.8366 9.33224 52.7283L0.348817 49.3452C0.0684833 49.2369 -0.0716929 48.9247 0.0366178 48.6443L2.12638 43.2288C2.22832 42.9612 2.52776 42.8211 2.8081 42.923Z" fill="#FFEA86"/>
<path d="M56.1901 42.9485L47.4297 46.0959C47.1557 46.1915 47.0092 46.4973 47.0984 46.7713L48.9651 52.4162C49.0607 52.7093 49.3793 52.8622 49.666 52.7539L58.6494 49.3707C58.9297 49.2624 59.0699 48.9502 58.9616 48.6699L56.8718 43.2544C56.7699 42.9931 56.4641 42.853 56.1901 42.9485Z" fill="#FFEA86"/>
<path d="M21.0545 12.6217L24.0362 11.341C24.4376 11.169 24.9027 11.3665 25.0556 11.7743L33.8224 34.7808L22.8894 29.824L20.6021 13.4372C20.5512 13.0868 20.736 12.7555 21.0545 12.6217Z" fill="#FFEB86"/>
<path d="M37.6078 13.0613L35.0593 29.9832L33.9634 30.5312L32.5044 31.2639L29.459 23.3062L30.1917 21.3056L33.6576 11.6341C33.8042 11.22 34.2756 11.0161 34.6834 11.1881L37.1618 12.2521C37.474 12.3796 37.6651 12.7172 37.6078 13.0613Z" fill="#FFEA86"/>
<path d="M28.9175 41.7573C29.7197 41.7573 30.3701 41.107 30.3701 40.3047C30.3701 39.5024 29.7197 38.8521 28.9175 38.8521C28.1152 38.8521 27.4648 39.5024 27.4648 40.3047C27.4648 41.107 28.1152 41.7573 28.9175 41.7573Z" fill="white"/>
<path d="M28.9175 48.9375C29.7197 48.9375 30.3701 48.2871 30.3701 47.4849C30.3701 46.6826 29.7197 46.0322 28.9175 46.0322C28.1152 46.0322 27.4648 46.6826 27.4648 47.4849C27.4648 48.2871 28.1152 48.9375 28.9175 48.9375Z" fill="white"/>
<path opacity="0.08" d="M33.9634 30.5312L32.5044 31.2639L29.459 23.2999L30.1917 21.2993L33.9634 30.5312Z" fill="#2B2403"/>
<defs>
<linearGradient id="paint0_linear_20_185" x1="25.1486" y1="33.1711" x2="57.6552" y2="33.1711" gradientUnits="userSpaceOnUse">
<stop stop-color="#F5BB01"/>
<stop offset="1" stop-color="#FFD91D"/>
</linearGradient>
<linearGradient id="paint1_linear_20_185" x1="3.9608" y1="33.2495" x2="26.2164" y2="33.2495" gradientUnits="userSpaceOnUse">
<stop stop-color="#F4BA00"/>
<stop offset="1" stop-color="#FED81D"/>
</linearGradient>
</defs>
</svg>
