<svg width="31" height="57" viewBox="0 0 31 57" fill="none" xmlns="http://www.w3.org/2000/svg">
<path d="M3.26812 56.1538H27.5084C29.3172 56.1538 30.7766 54.6876 30.7766 52.8857V3.87751C30.7766 2.06874 29.3104 0.609375 27.5084 0.609375H3.26812C1.45935 0.609375 0 2.07559 0 3.87751V52.8857C0 54.6876 1.45935 56.1538 3.26812 56.1538Z" fill="url(#paint0_linear_20_154)"/>
<path d="M3.78287 55.1875H27.0023C28.5919 55.1875 29.8731 53.8995 29.8731 52.3168V4.44593C29.8731 2.8564 28.585 1.5752 27.0023 1.5752H3.78287C2.19334 1.5752 0.912137 2.86325 0.912137 4.44593V52.3168C0.905285 53.8995 2.19334 55.1875 3.78287 55.1875Z" fill="#5C6374"/>
<path d="M26.3579 2.77441H22.9048C22.85 3.86379 21.9456 4.73393 20.8425 4.73393H9.78433C8.68125 4.73393 7.77685 3.87064 7.72204 2.77441H4.26894C2.98087 2.77441 1.93945 3.81583 1.93945 5.1039V51.9607C1.93945 53.2488 2.98087 54.2902 4.26894 54.2902H26.3579C27.646 54.2902 28.6874 53.2488 28.6874 51.9607V5.1039C28.6874 3.81583 27.646 2.77441 26.3579 2.77441Z" fill="#FFD91D"/>
<path d="M16.649 2.9248H12.5312V3.47978H16.649V2.9248Z" fill="white"/>
<path d="M17.7178 3.63771C17.96 3.63771 18.1563 3.4414 18.1563 3.19923C18.1563 2.95705 17.96 2.76074 17.7178 2.76074C17.4756 2.76074 17.2793 2.95705 17.2793 3.19923C17.2793 3.4414 17.4756 3.63771 17.7178 3.63771Z" fill="white"/>
<path d="M22.3237 10.1602C22.0907 10.1602 21.8989 10.3109 21.8372 10.5233C21.7755 10.3109 21.5769 10.1602 21.3508 10.1602C21.0699 10.1602 20.8438 10.3862 20.8438 10.6672C20.8438 10.7562 20.8712 10.8453 20.9123 10.9206C20.9328 10.9549 20.9534 10.9823 20.9808 11.0097L21.8235 12.1471L22.6868 11.0234C22.721 10.9892 22.7484 10.9549 22.7758 10.9138C22.817 10.8384 22.8444 10.7494 22.8444 10.6603C22.8307 10.3931 22.6046 10.1602 22.3237 10.1602Z" fill="#44D0A7"/>
<path d="M19.4321 11.9482L19.0415 11.4206C19.2128 11.2562 19.3087 11.0095 19.2608 10.7423C19.206 10.4272 18.9525 10.1668 18.6373 10.112C18.1166 10.0229 17.6644 10.4683 17.7535 10.9958C17.8014 11.311 18.0549 11.5645 18.3701 11.6262C18.5482 11.6604 18.7195 11.6262 18.8634 11.5508L19.2539 12.0784C19.2882 12.1263 19.3567 12.14 19.4046 12.0989C19.4595 12.0646 19.4732 11.9961 19.4321 11.9482ZM17.9727 10.9821C17.8973 10.5985 18.233 10.2627 18.6167 10.3381C18.8291 10.3792 19.0073 10.5505 19.0484 10.7697C19.1237 11.1534 18.788 11.4891 18.4043 11.4138C18.1851 11.3658 18.0138 11.1945 17.9727 10.9821Z" fill="url(#paint1_linear_20_154)"/>
<path d="M25.6438 10.7356H25.3972C25.3903 10.3793 25.2122 10.1875 24.9861 10.1875C24.76 10.1875 24.5887 10.3793 24.575 10.7356H24.3832L24.2188 12.1607H25.8083L25.6438 10.7356ZM24.993 10.3519C25.1026 10.3519 25.2328 10.4616 25.2396 10.7356H24.7463C24.7532 10.4616 24.8765 10.3519 24.993 10.3519Z" fill="url(#paint2_linear_20_154)"/>
<path d="M6.93377 10.249H4.69336V10.5642H6.93377V10.249Z" fill="#5C6374"/>
<path d="M6.93377 11.0713H4.69336V11.3865H6.93377V11.0713Z" fill="#5C6374"/>
<path d="M6.93377 11.8936H4.69336V12.2087H6.93377V11.8936Z" fill="#5C6374"/>
<path d="M23.3772 47.562H6.41992V51.2275H23.3772V47.562Z" fill="#28C079"/>
<path d="M11.98 24.09C11.98 23.97 12.13 22.89 12.82 22.17C13.48 21.48 14.32 21.36 15.04 21.36C15.64 21.36 16.48 21.45 17.17 22.11C17.5 22.44 17.95 23.07 17.95 24.12C17.95 25.02 17.65 25.77 17.17 26.25C16.72 26.7 15.91 27.12 14.62 27.12H14.2V29.7H14.8C15.43 29.7 16.51 29.76 17.38 30.6C18.16 31.35 18.28 32.31 18.28 32.97C18.28 34.32 17.8 35.25 17.23 35.79C16.69 36.27 15.82 36.63 14.89 36.63C13.63 36.63 12.88 36.12 12.46 35.73C11.95 35.25 11.53 34.47 11.38 33.57H8.44C8.59 35.1 9.25 36.69 10.15 37.65C11.44 39.03 13.09 39.33 14.62 39.33C16.18 39.33 18.07 39.03 19.51 37.59C20.47 36.63 21.22 35.1 21.22 33.12C21.22 31.98 20.95 30.87 20.38 30.03C20.05 29.52 19.42 28.83 18.4 28.44C18.97 28.14 19.66 27.63 20.2 26.76C20.71 25.92 20.89 25.08 20.89 24.12C20.89 22.68 20.5 21.39 19.45 20.31C18.16 18.96 16.66 18.66 15.13 18.66C13.81 18.66 12.13 18.87 10.75 20.19C9.82 21.09 9.13 22.47 9.04 24.09H11.98Z" fill="white"/>
<defs>
<linearGradient id="paint0_linear_20_154" x1="-0.00294611" y1="28.3799" x2="30.78" y2="28.3799" gradientUnits="userSpaceOnUse">
<stop stop-color="#FFD91D"/>
<stop offset="1" stop-color="#FFD91D"/>
</linearGradient>
<linearGradient id="paint1_linear_20_154" x1="17.7441" y1="11.1164" x2="19.4568" y2="11.1164" gradientUnits="userSpaceOnUse">
<stop stop-color="#FFD91D"/>
<stop offset="1" stop-color="#FFD91D"/>
</linearGradient>
<linearGradient id="paint2_linear_20_154" x1="24.2238" y1="11.1727" x2="25.8102" y2="11.1727" gradientUnits="userSpaceOnUse">
<stop stop-color="#C5C9CC"/>
<stop offset="1" stop-color="#DADBDE"/>
</linearGradient>
</defs>
</svg>
