<svg width="48" height="46" viewBox="0 0 48 46" fill="none" xmlns="http://www.w3.org/2000/svg">
<g filter="url(#filter0_d_20_276)">
<path d="M22.0979 1.8541C22.6966 0.0114771 25.3034 0.0114807 25.9021 1.8541L29.1638 11.8926C29.4316 12.7167 30.1995 13.2746 31.0659 13.2746H41.621C43.5585 13.2746 44.364 15.7538 42.7966 16.8926L34.2574 23.0967C33.5564 23.606 33.2631 24.5088 33.5308 25.3328L36.7925 35.3713C37.3912 37.2139 35.2823 38.7462 33.7148 37.6074L25.1756 31.4032C24.4746 30.894 23.5254 30.894 22.8244 31.4033L14.2852 37.6074C12.7177 38.7462 10.6088 37.2139 11.2075 35.3713L14.4692 25.3328C14.7369 24.5088 14.4436 23.606 13.7426 23.0967L5.20338 16.8926C3.63595 15.7538 4.44151 13.2746 6.37895 13.2746H16.9341C17.8005 13.2746 18.5684 12.7167 18.8362 11.8926L22.0979 1.8541Z" fill="#8FE8C4"/>
</g>
<defs>
<filter id="filter0_d_20_276" x="0.375" y="0.472168" width="47.25" height="45.5264" filterUnits="userSpaceOnUse" color-interpolation-filters="sRGB">
<feFlood flood-opacity="0" result="BackgroundImageFix"/>
<feColorMatrix in="SourceAlpha" type="matrix" values="0 0 0 0 0 0 0 0 0 0 0 0 0 0 0 0 0 0 127 0" result="hardAlpha"/>
<feOffset dy="4"/>
<feGaussianBlur stdDeviation="2"/>
<feComposite in2="hardAlpha" operator="out"/>
<feColorMatrix type="matrix" values="0 0 0 0 0.109804 0 0 0 0 0.501961 0 0 0 0 0.317647 0 0 0 1 0"/>
<feBlend mode="normal" in2="BackgroundImageFix" result="effect1_dropShadow_20_276"/>
<feBlend mode="normal" in="SourceGraphic" in2="effect1_dropShadow_20_276" result="shape"/>
</filter>
</defs>
</svg>
