<svg width="241" height="148" viewBox="0 0 241 148" fill="none" xmlns="http://www.w3.org/2000/svg">
<path d="M240.102 127.075V20.8473C228.736 20.8473 219.521 11.632 219.521 0.26557C219.521 0.185899 219.521 0.0796712 219.521 0H20.8473C20.8473 0.0796712 20.8473 0.185899 20.8473 0.26557C20.8473 11.632 11.632 20.8473 0.26557 20.8473C0.185899 20.8473 0.0796712 20.8473 0 20.8473V127.102C0.0796712 127.102 0.185899 127.102 0.26557 127.102C11.632 127.102 20.8473 136.317 20.8473 147.684H219.494C219.521 136.291 228.736 127.075 240.102 127.075Z" fill="url(#paint0_linear_39_821)"/>
<path d="M31.6314 30.4875H24.9922V44.0316H31.6314V30.4875Z" fill="white"/>
<path d="M31.6314 54.7871H24.9922V68.3312H31.6314V54.7871Z" fill="white"/>
<path d="M31.6314 79.2197H24.9922V92.7638H31.6314V79.2197Z" fill="white"/>
<path d="M31.6314 103.652H24.9922V117.196H31.6314V103.652Z" fill="white"/>
<path d="M215.141 30.4875H208.502V44.0316H215.141V30.4875Z" fill="white"/>
<path d="M215.141 54.7874H208.502V68.3314H215.141V54.7874Z" fill="white"/>
<path d="M215.141 79.2197H208.502V92.7638H215.141V79.2197Z" fill="white"/>
<path d="M215.141 103.652H208.502V117.196H215.141V103.652Z" fill="white"/>
<path d="M120.065 138.362C155.706 138.362 184.599 109.469 184.599 73.8286C184.599 38.1876 155.706 9.29492 120.065 9.29492C84.4239 9.29492 55.5312 38.1876 55.5312 73.8286C55.5312 109.469 84.4239 138.362 120.065 138.362Z" fill="white"/>
<path d="M120.064 132.52C152.478 132.52 178.755 106.243 178.755 73.8285C178.755 41.4143 152.478 15.1375 120.064 15.1375C87.6499 15.1375 61.373 41.4143 61.373 73.8285C61.373 106.243 87.6499 132.52 120.064 132.52Z" fill="#28C079"/>
<path d="M88.9394 71.5445C86.2306 68.4108 84.8496 64.2945 84.8496 59.2221C84.8496 54.1497 86.2041 50.0334 88.9394 46.8996C91.6483 43.7659 95.2334 42.199 99.6685 42.199C104.103 42.199 107.689 43.7393 110.451 46.8465C113.186 49.9536 114.567 54.07 114.567 59.2221C114.567 64.3741 113.186 68.4905 110.451 71.5977C107.715 74.7049 104.103 76.2452 99.6685 76.2452C95.2334 76.2452 91.6748 74.6782 88.9394 71.5445ZM105.299 67.1892C106.626 65.3036 107.29 62.6479 107.29 59.2221C107.29 55.7962 106.626 53.1405 105.299 51.255C103.971 49.3694 102.085 48.4133 99.6685 48.4133C97.358 48.4133 95.5256 49.3694 94.1181 51.2815C92.7371 53.1936 92.0466 55.8493 92.0466 59.2221C92.0466 62.5948 92.7371 65.2239 94.1181 67.1626C95.499 69.0747 97.358 70.0307 99.6685 70.0307C102.085 70.0307 103.971 69.0747 105.299 67.1892ZM138.787 42.8097C141.682 42.8097 143.381 46.0497 141.761 48.4133L104.289 103.28C103.625 104.263 102.51 104.847 101.315 104.847C98.4203 104.847 96.7206 101.607 98.3406 99.2435L135.813 44.3767C136.503 43.3941 137.618 42.8097 138.787 42.8097ZM129.625 100.784C126.916 97.6501 125.535 93.5338 125.535 88.4614C125.535 83.389 126.889 79.2726 129.625 76.1388C132.334 73.0051 135.919 71.4383 140.354 71.4383C144.789 71.4383 148.374 73.0051 151.136 76.1388C153.871 79.2726 155.252 83.389 155.252 88.4614C155.252 93.5338 153.871 97.6501 151.136 100.784C148.401 103.918 144.789 105.484 140.354 105.484C135.919 105.484 132.36 103.918 129.625 100.784ZM145.931 96.4019C147.285 94.4898 147.976 91.8342 147.976 88.4614C147.976 85.0887 147.285 82.4594 145.931 80.5207C144.576 78.6086 142.717 77.6526 140.354 77.6526C137.99 77.6526 136.131 78.6087 134.777 80.4943C133.422 82.3798 132.732 85.0355 132.732 88.4614C132.732 91.8873 133.422 94.543 134.777 96.4285C136.131 98.3141 137.99 99.27 140.354 99.27C142.717 99.27 144.576 98.314 145.931 96.4019Z" fill="white"/>
<defs>
<linearGradient id="paint0_linear_39_821" x1="0.0206614" y1="73.8417" x2="240.096" y2="73.8417" gradientUnits="userSpaceOnUse">
<stop stop-color="#FFDA25"/>
<stop offset="1" stop-color="#FFE77B"/>
</linearGradient>
</defs>
</svg>
