<svg width="54" height="43" viewBox="0 0 54 43" fill="none" xmlns="http://www.w3.org/2000/svg">
<path d="M36.4329 2.52569C37.9247 3.46937 38.3702 5.44906 37.4265 6.94084L23.0034 29.6446L17.6383 26.2507L32.0178 3.51933C32.9614 2.02756 34.9411 1.58202 36.4329 2.52569Z" fill="#FFE366"/>
<path d="M46.9679 36.5764C46.9679 34.8112 44.3571 33.3763 42.5919 33.3763L46.2453 33.3763C48.0105 33.3763 49.4454 31.9414 49.4454 30.1762C49.4454 28.411 48.0105 26.9762 46.2453 26.9762L48.6196 26.9762C50.3847 26.9762 51.8196 25.5413 51.8196 23.7761C51.8196 22.2071 50.6841 20.8961 49.1873 20.6277L50.2628 20.6277C52.028 20.6277 53.4629 19.1928 53.4629 17.4276C53.4629 15.6624 52.028 14.2275 50.2628 14.2275L11.8188 14.2275L11.8188 20.5761L11.7672 20.5761L11.7672 26.9762L11.7672 33.3763L11.7672 39.7764L43.7678 39.7764C45.533 39.7764 46.9679 38.3416 46.9679 36.5764Z" fill="url(#paint0_linear_20_177)"/>
<path d="M17.291 40.5509L17.291 13.6084L8.7231 13.6084L8.7231 40.5509L17.291 40.5509Z" fill="url(#paint1_linear_20_177)"/>
<path d="M10.2187 42.1509L10.2188 12.731L-0.000811577 12.731L-0.000812863 42.1509L10.2187 42.1509Z" fill="url(#paint2_diamond_20_177)"/>
<path d="M10.2187 42.1509L10.2188 27.8022L-0.000811577 27.8022L-0.000812204 42.1509L10.2187 42.1509Z" fill="#F5BB01"/>
<path d="M2.78639 18.1508C2.78639 19.4335 3.82626 20.4734 5.10901 20.4734C6.39176 20.4734 7.43164 19.4335 7.43164 18.1508C7.43164 16.868 6.39176 15.8281 5.10901 15.8281C3.82626 15.8281 2.78639 16.868 2.78639 18.1508Z" fill="white"/>
<defs>
<linearGradient id="paint0_linear_20_177" x1="38.5806" y1="14.2275" x2="38.5806" y2="39.7764" gradientUnits="userSpaceOnUse">
<stop stop-color="#FFE46D"/>
<stop offset="1" stop-color="#FFD921"/>
</linearGradient>
<linearGradient id="paint1_linear_20_177" x1="13.0071" y1="13.6084" x2="13.0071" y2="40.5509" gradientUnits="userSpaceOnUse">
<stop stop-color="white"/>
<stop offset="1" stop-color="#DBDBDB"/>
</linearGradient>
<radialGradient id="paint2_diamond_20_177" cx="0" cy="0" r="1" gradientUnits="userSpaceOnUse" gradientTransform="translate(5.14259 28.7746) rotate(-91.4441) scale(15.5702 15.5702)">
<stop stop-color="#FFDE3F"/>
<stop offset="1" stop-color="#FFDD3C"/>
</radialGradient>
</defs>
</svg>
