<svg width="147" height="58" viewBox="0 0 147 58" fill="none" xmlns="http://www.w3.org/2000/svg">
<path d="M146.002 21.9701C145.93 13.6741 138.889 6.95389 130.293 7.00024C124.665 7.02341 119.732 9.94322 117.002 14.2998C114.272 9.94322 109.363 7.02341 103.711 7.00024C95.1384 6.95389 88.0741 13.6741 88.0022 21.9701C87.9783 26.0949 89.6306 29.8257 92.3606 32.5833C92.6719 32.8845 92.9592 33.1858 93.2466 33.5102L114.583 56.8918C115.853 58.2822 118.08 58.2822 119.325 56.8918L140.662 33.5102C140.949 33.1858 141.26 32.8845 141.548 32.5833C144.349 29.8489 146.026 26.0949 146.002 21.9701Z" fill="#E51715"/>
<path d="M43.8781 2.12721C45.8643 3.27395 46.5466 5.8206 45.3999 7.8068L27.8681 38.0386L20.7248 33.9144L38.1985 3.64905C39.3452 1.66285 41.8919 0.98048 43.8781 2.12721Z" fill="#FFE366"/>
<path d="M61.0261 48.0396C61.0261 45.7461 59.1618 43.8819 56.8684 43.8819L60.0873 43.8819C62.3807 43.8819 64.245 42.0176 64.245 39.7241C64.245 37.4307 62.3807 35.5664 60.0873 35.5664L63.172 35.5664C65.4655 35.5664 67.3298 33.7021 67.3298 31.4086C67.3298 29.37 65.8545 27.6667 63.9097 27.3179L65.3071 27.3179C67.6006 27.3179 69.4648 25.4537 69.4648 23.1602C69.4648 20.8667 67.6006 19.0024 65.3071 19.0024L15.3579 19.0024L15.3579 27.2509L15.2909 27.2509L15.2909 35.5664L15.2909 43.8819L15.2909 52.1974L56.8684 52.1974C59.1618 52.1974 61.0261 50.3331 61.0261 48.0396Z" fill="url(#paint0_linear_39_976)"/>
<path d="M22.4668 53.2035L22.4668 18.198L11.3348 18.198L11.3348 53.2035L22.4668 53.2035Z" fill="url(#paint1_linear_39_976)"/>
<path d="M13.2793 55.2823L13.2793 17.0579L0.00132942 17.0579L0.00132775 55.2823L13.2793 55.2823Z" fill="url(#paint2_linear_39_976)"/>
<path d="M13.2793 55.2827L13.2793 36.6399L0.00132942 36.6399L0.00132861 55.2827L13.2793 55.2827Z" fill="#22A467"/>
<path d="M3.62276 24.0998C3.62276 25.7664 4.97384 27.1175 6.64048 27.1175C8.30712 27.1175 9.6582 25.7664 9.6582 24.0998C9.6582 22.4331 8.30712 21.082 6.64048 21.082C4.97384 21.082 3.62276 22.4331 3.62276 24.0998Z" fill="#FFDA25"/>
<defs>
<linearGradient id="paint0_linear_39_976" x1="50.1288" y1="19.0024" x2="50.1288" y2="52.1974" gradientUnits="userSpaceOnUse">
<stop stop-color="#FFE46D"/>
<stop offset="1" stop-color="#FFD921"/>
</linearGradient>
<linearGradient id="paint1_linear_39_976" x1="16.9008" y1="18.198" x2="16.9008" y2="53.2035" gradientUnits="userSpaceOnUse">
<stop stop-color="#DCECFF"/>
<stop offset="1" stop-color="#7AB2F4"/>
</linearGradient>
<linearGradient id="paint2_linear_39_976" x1="7.19383" y1="58.1264" x2="6.17416" y2="17.6794" gradientUnits="userSpaceOnUse">
<stop stop-color="#28C079"/>
<stop offset="1" stop-color="#5AF8AF"/>
</linearGradient>
</defs>
</svg>
