<svg width="42" height="42" viewBox="0 0 42 42" fill="none" xmlns="http://www.w3.org/2000/svg">
<rect x="6.5625" y="7.875" width="27.5625" height="27.5625" fill="white"/>
<path d="M16.1879 17.0625H14.6563C14.2187 17.0625 14.1312 17.2685 14.1312 17.4955C14.1312 17.9011 14.6504 19.9127 16.5489 22.5732C17.8145 24.3901 19.5977 25.375 21.2203 25.375C22.1939 25.375 22.3143 25.1563 22.3143 24.7795V23.4062C22.3143 22.9688 22.4066 22.8814 22.7148 22.8814C22.942 22.8814 23.3314 22.995 24.2401 23.871C24.5493 24.1801 24.7816 24.4384 24.9708 24.6488C25.4171 25.1452 25.6237 25.375 26.0339 25.375H27.5655C28.0032 25.375 28.2219 25.1563 28.0957 24.7246C27.9576 24.2943 27.4618 23.6701 26.8039 22.9301C26.6229 22.7163 26.396 22.4941 26.1951 22.2974C25.9998 22.1061 25.8291 21.9389 25.7492 21.827C25.522 21.535 25.5869 21.4052 25.7492 21.1456C25.7492 21.1456 27.6152 18.5176 27.8099 17.6254C27.9073 17.3009 27.8099 17.0625 27.3467 17.0625H25.8151C25.4257 17.0625 25.2462 17.2685 25.1488 17.4955C25.1488 17.4955 24.3699 19.3936 23.2666 20.6265C22.9096 20.9834 22.7473 21.097 22.5526 21.097C22.4552 21.097 22.3143 20.9834 22.3143 20.659V17.6254C22.3143 17.236 22.2013 17.0625 21.8767 17.0625H19.4699C19.2266 17.0625 19.0802 17.2432 19.0802 17.4145C19.0802 17.5554 19.1606 17.6549 19.2632 17.7819C19.4293 17.9875 19.6536 18.265 19.6887 18.9069V21.1619C19.6887 21.6562 19.5994 21.7459 19.4047 21.7459C18.8855 21.7459 17.6225 19.8394 16.8734 17.6578C16.7266 17.2338 16.5793 17.0625 16.1879 17.0625Z" fill="#22A467"/>
<path fill-rule="evenodd" clip-rule="evenodd" d="M6.5625 0C2.93813 0 0 2.93813 0 6.5625V35.4375C0 39.0619 2.93813 42 6.5625 42H35.4375C39.0619 42 42 39.0619 42 35.4375V6.5625C42 2.93813 39.0619 0 35.4375 0H6.5625ZM10.5 20.5625C10.5 15.819 10.5 13.4472 11.9736 11.9736C13.4472 10.5 15.819 10.5 20.5625 10.5H21.4375C26.181 10.5 28.5528 10.5 30.0264 11.9736C31.5 13.4472 31.5 15.819 31.5 20.5625V21.4375C31.5 26.181 31.5 28.5528 30.0264 30.0264C28.5528 31.5 26.181 31.5 21.4375 31.5H20.5625C15.819 31.5 13.4472 31.5 11.9736 30.0264C10.5 28.5528 10.5 26.181 10.5 21.4375V20.5625Z" fill="#22A467"/>
</svg>
